Coordinates
version=1
nRows=9
nColumns=24
inDegrees=yes

Units are S.I. units (second, meters, Newtons, ...)
Angles are in degrees.

endheader
time	pelvis_tilt	pelvis_list	pelvis_rotation	pelvis_tx	pelvis_ty	pelvis_tz	hip_flexion_r	hip_adduction_r	hip_rotation_r	knee_angle_r	ankle_angle_r	subtalar_angle_r	mtp_angle_r	hip_flexion_l	hip_adduction_l	hip_rotation_l	knee_angle_l	ankle_angle_l	subtalar_angle_l	mtp_angle_l	lumbar_extension	lumbar_bending	lumbar_rotation
      0.75800000	      0.63504923	     -5.21878736	      6.18138247	     -0.40908757	      1.03288540	      0.30941198	      8.54650875	     10.12270216	     -3.35598830	    -10.21763309	      1.71936439	    -10.95342503	      8.20119753	     17.28976255	     -7.86044491	     -3.13034044	    -66.23197603	     -0.58755289	     -2.44523339	      1.59447105	     -7.18205239	      3.41238885	      0.48084196
      0.76216667	      0.60235582	     -5.06031653	      6.17213188	     -0.40400610	      1.03358522	      0.30962532	      8.12794244	     10.00955563	     -3.27021205	     -9.98694193	      1.83433782	    -10.91298500	      8.19414303	     17.83548079	     -7.67830014	     -3.16711210	    -65.76365385	     -0.11871776	     -2.76022403	      1.58838781	     -7.20253458	      3.19625244	      0.51450403
      0.76633333	      0.57850377	     -4.90281332	      6.16651290	     -0.39892482	      1.03429205	      0.30982266	      7.69360347	      9.89652496	     -3.19526354	     -9.74002469	      1.93907970	    -10.86889558	      8.18553970	     18.35101081	     -7.49192410	     -3.20067589	    -65.21827753	      0.33363335	     -3.06299588	      1.58178443	     -7.22488201	      2.98461920	      0.55094596
      0.77050000	      0.58572429	     -4.72083792	      6.15392819	     -0.39385729	      1.03505598	      0.31001064	      7.21756890	      9.76098782	     -3.09073623	     -9.48458414	      2.05217985	    -10.81403418	      8.15336986	     18.79872722	     -7.27218908	     -3.23852155	    -64.57616787	      0.70769463	     -3.40462130	      1.54526012	     -7.31624585	      2.74359119	      0.63497686
      0.77466667	      0.56080087	     -4.56268609	      6.14483680	     -0.38878628	      1.03572597	      0.31019274	      6.78587552	      9.64359381	     -3.03354574	     -9.23643396	      2.13814468	    -10.76764443	      8.13851227	     19.27146952	     -7.07401295	     -3.27032078	    -63.88596578	      1.16025643	     -3.66622151	      1.53432934	     -7.34176730	      2.53035721	      0.65834056
      0.77883333	      0.58412476	     -4.36932070	      6.12401468	     -0.38374218	      1.03648732	      0.31035702	      6.29396821	      9.49376370	     -2.93387651	     -8.98272864	      2.23934527	    -10.71255547	      8.10487259	     19.64944192	     -6.83050264	     -3.30774514	    -63.09063392	      1.52385223	     -3.95037400	      1.50040347	     -7.45737281	      2.29659619	      0.71147839
      0.78300000	      0.56822946	     -4.19164677	      6.10228538	     -0.37868066	      1.03714685	      0.31052848	      5.85052726	      9.35485317	     -2.86094159	     -8.73527968	      2.32653685	    -10.65908593	      8.07700481	     20.05397115	     -6.59916440	     -3.34249824	    -62.24110685	      1.92110883	     -4.19421268	      1.47514697	     -7.50878421	      2.06474335	      0.74371039
      0.78716667	      0.61856420	     -4.00846587	      6.08255310	     -0.37362219	      1.03790251	      0.31068579	      5.31942363	      9.21803164	     -2.77277575	     -8.45439338	      2.42567096	    -10.58949847	      8.02157547	     20.35541758	     -6.36480333	     -3.37552263	    -61.30665802	      2.25534523	     -4.44078423	      1.41941845	     -7.63821936	      1.83148201	      0.80262499
      0.79133333	      0.60626277	     -3.82914965	      6.04919266	     -0.36858486	      1.03852109	      0.31085529	      4.87453353	      9.07619213	     -2.68981867	     -8.20753541	      2.51857752	    -10.53458596	      7.96571714	     20.70551781	     -6.12351363	     -3.40736544	    -60.31559674	      2.60780257	     -4.64133610	      1.36513111	     -7.69945840	      1.59958446	      0.83987686
